<svg width="800" height="800" viewBox="0 0 800 800" fill="none" xmlns="http://www.w3.org/2000/svg">
<path d="M666.667 100H166.667C157.826 100 149.348 103.512 143.096 109.763C136.845 116.014 133.333 124.493 133.333 133.333V666.667C133.333 675.507 136.845 683.986 143.096 690.237C149.348 696.488 157.826 700 166.667 700H666.667C675.507 700 683.986 696.488 690.237 690.237C696.488 683.986 700 675.507 700 666.667V133.333C700 124.493 696.488 116.014 690.237 109.763C683.986 103.512 675.507 100 666.667 100ZM566.667 366.667H300V233.333H566.667V366.667Z" fill="#76E2F2"/>
<path d="M166.667 266.667H100M166.667 400H100M166.667 533.333H100M666.667 700H166.667C157.826 700 149.348 696.488 143.096 690.237C136.845 683.986 133.333 675.507 133.333 666.667V133.333C133.333 124.493 136.845 116.014 143.096 109.763C149.348 103.512 157.826 100 166.667 100H666.667C675.507 100 683.986 103.512 690.237 109.763C696.488 116.014 700 124.493 700 133.333V666.667C700 675.507 696.488 683.986 690.237 690.237C683.986 696.488 675.507 700 666.667 700ZM566.667 233.333H300V366.667H566.667V233.333Z" stroke="#131313" stroke-width="66.6667" stroke-linecap="round" stroke-linejoin="round"/>
</svg>
